<?xml version="1.0" encoding="UTF-8" standalone="no"?>
<!DOCTYPE svg PUBLIC "-//W3C//DTD SVG 1.1//EN" "http://www.w3.org/Graphics/SVG/1.1/DTD/svg11.dtd">
<svg version="1.1" xmlns="http://www.w3.org/2000/svg" xmlns:xlink="http://www.w3.org/1999/xlink" preserveAspectRatio="xMidYMid meet" viewBox="105.08772146376828 299.7419003078987 63.09589681857284 63.095896818572726" width="59.1" height="59.1"><defs><path d="M139.54 301L140.8 301.19L142.05 301.44L143.28 301.74L144.49 302.09L145.68 302.5L146.85 302.95L147.99 303.44L149.1 303.99L150.19 304.57L151.25 305.2L152.28 305.88L153.28 306.59L154.25 307.35L155.18 308.14L156.09 308.97L156.95 309.84L157.79 310.74L158.58 311.68L159.33 312.65L160.05 313.65L160.72 314.68L161.35 315.74L161.94 316.83L162.48 317.94L162.98 319.08L163.43 320.24L163.83 321.43L164.18 322.64L164.48 323.87L164.73 325.12L164.93 326.39L165.07 327.67L165.15 328.97L165.18 330.29L165.15 331.61L165.07 332.91L164.93 334.19L164.73 335.46L164.48 336.71L164.18 337.94L163.83 339.15L163.43 340.33L162.98 341.5L162.48 342.64L161.94 343.75L161.35 344.84L160.72 345.9L160.05 346.93L159.33 347.93L158.58 348.9L157.79 349.84L156.95 350.74L156.09 351.61L155.18 352.44L154.25 353.23L153.28 353.99L152.28 354.7L151.25 355.38L150.19 356.01L149.1 356.59L147.99 357.14L146.85 357.63L145.68 358.08L144.49 358.48L143.28 358.84L142.05 359.14L140.8 359.39L139.54 359.58L138.25 359.72L136.95 359.81L135.64 359.84L134.32 359.81L133.02 359.72L131.73 359.58L130.47 359.39L129.22 359.14L127.99 358.84L126.78 358.48L125.59 358.08L124.43 357.63L123.29 357.14L122.17 356.59L121.08 356.01L120.02 355.38L118.99 354.7L117.99 353.99L117.02 353.23L116.09 352.44L115.18 351.61L114.32 350.74L113.49 349.84L112.69 348.9L111.94 347.93L111.22 346.93L110.55 345.9L109.92 344.84L109.33 343.75L108.79 342.64L108.29 341.5L107.84 340.33L107.44 339.15L107.09 337.94L106.79 336.71L106.54 335.46L106.34 334.19L106.2 332.91L106.12 331.61L106.09 330.29L106.12 328.97L106.2 327.67L106.34 326.39L106.54 325.12L106.79 323.87L107.09 322.64L107.44 321.43L107.84 320.24L108.29 319.08L108.79 317.94L109.33 316.83L109.92 315.74L110.55 314.68L111.22 313.65L111.94 312.65L112.69 311.68L113.49 310.74L114.32 309.84L115.18 308.97L116.09 308.14L117.02 307.35L117.99 306.59L118.99 305.88L120.02 305.2L121.08 304.57L122.17 303.99L123.29 303.44L124.43 302.95L125.59 302.5L126.78 302.09L127.99 301.74L129.22 301.44L130.47 301.19L131.73 301L133.02 300.86L134.32 300.77L135.64 300.74L136.95 300.77L138.25 300.86L138.25 300.86L139.54 301ZM132.84 311.98L131.6 312.28L130.4 312.65L129.23 313.1L128.09 313.63L127 314.22L125.96 314.88L124.96 315.6L124.01 316.39L123.11 317.23L122.27 318.13L121.48 319.08L120.76 320.08L120.1 321.12L119.51 322.21L118.98 323.35L118.53 324.52L118.16 325.72L117.86 326.96L117.64 328.22L117.51 329.52L117.47 330.83L117.51 332.15L117.64 333.44L117.86 334.71L118.16 335.95L118.53 337.15L118.98 338.32L119.51 339.45L120.1 340.54L120.76 341.59L121.48 342.59L122.27 343.54L123.11 344.44L124.01 345.28L124.96 346.07L125.96 346.79L127 347.45L128.09 348.04L129.23 348.56L130.4 349.01L131.6 349.39L132.84 349.69L134.1 349.9L135.4 350.03L136.71 350.08L138.03 350.03L139.32 349.9L140.59 349.69L141.83 349.39L143.03 349.01L144.2 348.56L145.33 348.04L146.42 347.45L147.47 346.79L148.47 346.07L149.42 345.28L150.32 344.44L151.16 343.54L151.95 342.59L152.67 341.59L153.33 340.54L153.92 339.45L154.44 338.32L154.9 337.15L155.27 335.95L155.57 334.71L155.78 333.44L155.91 332.15L155.96 330.83L155.91 329.52L155.78 328.22L155.57 326.96L155.27 325.72L154.9 324.52L154.44 323.35L153.92 322.21L153.33 321.12L152.67 320.08L151.95 319.08L151.16 318.13L150.32 317.23L149.42 316.39L148.47 315.6L147.47 314.88L146.42 314.22L145.33 313.63L144.2 313.1L143.03 312.65L141.83 312.28L140.59 311.98L139.32 311.76L138.03 311.63L136.71 311.59L135.4 311.63L134.1 311.76L134.1 311.76L132.84 311.98Z" id="a95LfEKAl"></path><path d="M140.13 302.02L141.43 302.18L142.71 302.39L143.97 302.66L145.2 302.99L146.41 303.38L147.6 303.82L148.76 304.31L149.9 304.85L151 305.44L152.07 306.08L153.11 306.77L154.12 307.5L155.09 308.28L156.03 309.09L156.93 309.95L157.78 310.85L158.6 311.78L159.38 312.76L160.11 313.76L160.79 314.8L161.43 315.88L162.03 316.98L162.57 318.11L163.06 319.27L163.5 320.46L163.88 321.67L164.21 322.91L164.49 324.17L164.7 325.44L164.86 326.74L164.95 328.06L164.98 329.39L164.95 330.72L164.86 332.03L164.7 333.33L164.49 334.61L164.21 335.87L163.88 337.1L163.5 338.32L163.06 339.5L162.57 340.66L162.03 341.8L161.43 342.9L160.79 343.97L160.11 345.01L159.38 346.02L158.6 346.99L157.78 347.93L156.93 348.83L156.03 349.68L155.09 350.5L154.12 351.28L153.11 352.01L152.07 352.69L151 353.33L149.9 353.93L148.76 354.47L147.6 354.96L146.41 355.4L145.2 355.78L143.97 356.11L142.71 356.39L141.43 356.6L140.13 356.76L138.82 356.85L137.49 356.88L136.16 356.85L134.84 356.76L133.54 356.6L132.27 356.39L131.01 356.11L129.77 355.78L128.56 355.4L127.37 354.96L126.21 354.47L125.08 353.93L123.98 353.33L122.9 352.69L121.86 352.01L120.86 351.28L119.88 350.5L118.95 349.68L118.05 348.83L117.19 347.93L116.37 346.99L115.6 346.02L114.87 345.01L114.18 343.97L113.54 342.9L112.95 341.8L112.41 340.66L111.92 339.5L111.48 338.32L111.09 337.1L110.76 335.87L110.49 334.61L110.28 333.33L110.12 332.03L110.03 330.72L109.99 329.39L110.03 328.06L110.12 326.74L110.28 325.44L110.49 324.17L110.76 322.91L111.09 321.67L111.48 320.46L111.92 319.27L112.41 318.11L112.95 316.98L113.54 315.88L114.18 314.8L114.87 313.76L115.6 312.76L116.37 311.78L117.19 310.85L118.05 309.95L118.95 309.09L119.88 308.28L120.86 307.5L121.86 306.77L122.9 306.08L123.98 305.44L125.08 304.85L126.21 304.31L127.37 303.82L128.56 303.38L129.77 302.99L131.01 302.66L132.27 302.39L133.54 302.18L134.84 302.02L136.16 301.93L137.49 301.89L138.82 301.93L140.13 302.02ZM133.4 310.68L132.13 310.88L130.89 311.16L129.69 311.5L128.51 311.92L127.36 312.4L126.26 312.95L125.19 313.56L124.16 314.24L123.17 314.97L122.23 315.75L121.34 316.59L120.5 317.49L119.72 318.42L118.99 319.41L118.31 320.44L117.7 321.51L117.15 322.61L116.67 323.76L116.25 324.94L115.91 326.14L115.63 327.38L115.43 328.65L115.31 329.93L115.27 331.24L115.31 332.55L115.43 333.84L115.63 335.11L115.91 336.34L116.25 337.55L116.67 338.73L117.15 339.87L117.7 340.98L118.31 342.05L118.99 343.08L119.72 344.06L120.5 345L121.34 345.89L122.23 346.73L123.17 347.52L124.16 348.25L125.19 348.92L126.26 349.54L127.36 350.09L128.51 350.57L129.69 350.99L130.89 351.33L132.13 351.61L133.4 351.8L134.68 351.93L135.99 351.97L137.3 351.93L138.59 351.8L139.86 351.61L141.09 351.33L142.3 350.99L143.48 350.57L144.62 350.09L145.73 349.54L146.8 348.92L147.83 348.25L148.81 347.52L149.75 346.73L150.64 345.89L151.48 345L152.27 344.06L153 343.08L153.67 342.05L154.29 340.98L154.84 339.87L155.32 338.73L155.74 337.55L156.08 336.34L156.36 335.11L156.55 333.84L156.67 332.55L156.72 331.24L156.67 329.93L156.55 328.65L156.36 327.38L156.08 326.14L155.74 324.94L155.32 323.76L154.84 322.61L154.29 321.51L153.67 320.44L153 319.41L152.27 318.42L151.48 317.49L150.64 316.59L149.75 315.75L148.81 314.97L147.83 314.24L146.8 313.56L145.73 312.95L144.62 312.4L143.48 311.92L142.3 311.5L141.09 311.16L139.86 310.88L138.59 310.68L137.3 310.56L135.99 310.52L134.68 310.56L133.4 310.68Z" id="a6vbTtTil"></path><path d="M141.69 303.66L143 303.83L144.29 304.07L145.55 304.37L146.79 304.74L148 305.16L149.19 305.64L150.34 306.18L151.46 306.78L152.54 307.43L153.59 308.13L154.6 308.88L155.58 309.68L156.51 310.52L157.4 311.41L158.24 312.34L159.04 313.31L159.79 314.33L160.49 315.38L161.14 316.46L161.73 317.58L162.27 318.73L162.76 319.92L163.18 321.13L163.54 322.37L163.85 323.63L164.08 324.92L164.26 326.22L164.36 327.55L164.4 328.9L164.36 330.25L164.26 331.58L164.08 332.88L163.85 334.17L163.54 335.43L163.18 336.67L162.76 337.88L162.27 339.07L161.73 340.22L161.14 341.34L160.49 342.42L159.79 343.47L159.04 344.49L158.24 345.46L157.4 346.39L156.51 347.28L155.58 348.12L154.6 348.92L153.59 349.67L152.54 350.37L151.46 351.02L150.34 351.62L149.19 352.16L148 352.64L146.79 353.06L145.55 353.43L144.29 353.73L143 353.97L141.69 354.14L140.36 354.24L139.02 354.28L137.67 354.24L136.34 354.14L135.03 353.97L133.75 353.73L132.48 353.43L131.24 353.06L130.03 352.64L128.85 352.16L127.7 351.62L126.58 351.02L125.49 350.37L124.44 349.67L123.43 348.92L122.46 348.12L121.53 347.28L120.64 346.39L119.79 345.46L119 344.49L118.25 343.47L117.55 342.42L116.9 341.34L116.3 340.22L115.76 339.07L115.28 337.88L114.85 336.67L114.49 335.43L114.19 334.17L113.95 332.88L113.78 331.58L113.68 330.25L113.64 328.9L113.68 327.55L113.78 326.22L113.95 324.92L114.19 323.63L114.49 322.37L114.85 321.13L115.28 319.92L115.76 318.73L116.3 317.58L116.9 316.46L117.55 315.38L118.25 314.33L119 313.31L119.79 312.34L120.64 311.41L121.53 310.52L122.46 309.68L123.43 308.88L124.44 308.13L125.49 307.43L126.58 306.78L127.7 306.18L128.85 305.64L130.03 305.16L131.24 304.74L132.48 304.37L133.75 304.07L135.03 303.83L136.34 303.66L137.67 303.56L139.02 303.52L140.36 303.56L141.69 303.66ZM134.88 306.97L133.6 307.15L132.35 307.4L131.12 307.72L129.92 308.09L128.75 308.53L127.61 309.03L126.5 309.59L125.43 310.21L124.39 310.88L123.4 311.6L122.44 312.38L121.53 313.2L120.66 314.07L119.84 314.98L119.06 315.94L118.34 316.93L117.67 317.97L117.05 319.04L116.49 320.15L115.99 321.29L115.55 322.46L115.17 323.66L114.86 324.89L114.61 326.14L114.43 327.42L114.33 328.71L114.29 330.03L114.33 331.34L114.43 332.64L114.61 333.92L114.86 335.17L115.17 336.4L115.55 337.6L115.99 338.77L116.49 339.91L117.05 341.01L117.67 342.09L118.34 343.12L119.06 344.12L119.84 345.08L120.66 345.99L121.53 346.86L122.44 347.68L123.4 348.45L124.39 349.18L125.43 349.85L126.5 350.46L127.61 351.02L128.75 351.52L129.92 351.96L131.12 352.34L132.35 352.66L133.6 352.9L134.88 353.08L136.17 353.19L137.49 353.23L138.8 353.19L140.1 353.08L141.38 352.9L142.63 352.66L143.85 352.34L145.06 351.96L146.23 351.52L147.37 351.02L148.47 350.46L149.55 349.85L150.58 349.18L151.58 348.45L152.54 347.68L153.45 346.86L154.32 345.99L155.14 345.08L155.91 344.12L156.64 343.12L157.31 342.09L157.92 341.01L158.48 339.91L158.98 338.77L159.42 337.6L159.8 336.4L160.11 335.17L160.36 333.92L160.54 332.64L160.65 331.34L160.69 330.03L160.65 328.71L160.54 327.42L160.36 326.14L160.11 324.89L159.8 323.66L159.42 322.46L158.98 321.29L158.48 320.15L157.92 319.04L157.31 317.97L156.64 316.93L155.91 315.94L155.14 314.98L154.32 314.07L153.45 313.2L152.54 312.38L151.58 311.6L150.58 310.88L149.55 310.21L148.47 309.59L147.37 309.03L146.23 308.53L145.06 308.09L143.85 307.72L142.63 307.4L141.38 307.15L140.1 306.97L138.8 306.87L137.49 306.83L136.17 306.87L134.88 306.97Z" id="bpXRKhmOm"></path></defs><g><g><use xlink:href="#a95LfEKAl" opacity="1" fill="#aeaeae" fill-opacity="1"></use><g><use xlink:href="#a95LfEKAl" opacity="1" fill-opacity="0" stroke="#7c7c7c" stroke-width="2" stroke-opacity="1"></use></g></g><g><use xlink:href="#a6vbTtTil" opacity="1" fill="#b5b5b5" fill-opacity="1"></use><g><use xlink:href="#a6vbTtTil" opacity="1" fill-opacity="0" stroke="#cdcdcd" stroke-width="2" stroke-opacity="1"></use></g></g><g><use xlink:href="#bpXRKhmOm" opacity="1" fill="#ffffff" fill-opacity="1"></use><g><use xlink:href="#bpXRKhmOm" opacity="1" fill-opacity="0" stroke="#e7e7e7" stroke-width="2" stroke-opacity="1"></use></g></g></g></svg>